<svg xmlns="http://www.w3.org/2000/svg" width="40px" height="40px" viewBox="0 0 303 231.5"><defs><style>.a,.b,.c{stroke:#231f20;stroke-miterlimit:10;}.b{fill:#231f20;}.c{fill:#fff;}</style></defs><title>bee-logo</title><path class="a" d="M144,277.89c5.4-11.63,26.51-19,38.33-14.57,4.76,1.78,8.53,6.21,12.75,9.44l-.64,1.6,5.64-2.39c-4.74-13.76-18.18-20.67-31.52-16.25-2.24.74-4.09,2.66-6.12,4-3.56,2.4-7,4.94-10.74,7.11-.81.48-3,.08-3.43-.62s-.16-2.65.5-3.56a15.08,15.08,0,0,1,4.3-4.09c17.69-10.5,38.71-13.43,50.53,12.11,8.56-2.35,17.19-2.59,25.76.6a4.33,4.33,0,0,0,3.45-.91c7.69-6.31,16.61-9.3,26.27-11.2a34.8,34.8,0,0,0,14.2-6.44c12.23-9.48,23.83-19.76,35.87-29.5,25.12-20.33,52.64-36,84.62-42.81,2.41-.51,4.82-1,7.23-1.56h9c7.95,3.53,8.65,7.15,2.49,13.58-2,2.1-4.27,4-7.31,6.75,2.85-.31,4.43-.52,6-.65,6.93-.55,13.86-1.46,20.79-1.5,5.26,0,10.58.92,14,5.82v4c-6.72,14.59-17.61,25.69-30.25,35.09-9.2,6.84-18.85,13.09-28.43,19.41-10.58,7-22.21,9.76-35,9.8-11.9.05-23.85,1.38-35.67,2.92-4.55.59-8.82,3.33-13.91,5.37,8.75,2.73,16.59,4.59,24,7.61,14.59,6,26.28,15.59,33.32,30.1,7.66,15.81,6.62,31.7-.63,47.19-8.45,18.05-21.39,32.42-38,43.46a9.6,9.6,0,0,1-5.76,1.55c1.13-1.29,2.24-2.61,3.39-3.88,7.66-8.41,8.13-17.91.54-26.41-3.72-4.17-8.39-7.55-12.86-11s-9.58-6.62-14.26-10.09-9.18-7.16-14.24-11.13v7.56L266.63,333.7c-3,11.46-4,22.22-14.27,28.27,1.34-2.69,2.72-5.35,4-8.06,4.77-10.05,7.5-20.31,2.73-31.17a6.09,6.09,0,0,0-3.67-2.87c3.64,12.48,2.05,23.57-5.92,33.36-2,2.49-5.07,4.13-8.2,5.63,9.23-11.63,15.58-23.59,9.12-39l-6.55-.53c-1.62,6.28-3.74,12.56-4.75,19s-.86,12.88-1.66,19.3c-3.1-13.1-3.26-26,3-38.48-11.15,10.52-12,23.83-10,38.34-5.72-5.4-5.43-15.73.56-32.32-1.92,1.25-3.35,2.16-4.75,3.11a70.44,70.44,0,0,1-40.82,12.57c-17.89-.16-26.77-12-21.76-29.34,4.1-14.19,13.2-24.79,24.89-33.38.94-.69,1.91-1.33,2.86-2a1.79,1.79,0,0,0,.29-.4c-4.12-11.12-19.64-14.95-28.32-7.06-3.93,3.58-7.79,7.33-12.15,10.32-1.77,1.22-4.78.62-7.22.85Zm123,38.86c-4.05.35-5,2.5-3.59,5.16a56.83,56.83,0,0,0,7.33,11.15c11.4,12.76,25.44,22.33,39.24,32.27a72,72,0,0,1,16,16c4.61,6.37,6.55,7.51,13.27,2.8,9.6-6.72,14.79-16.61,18.41-27.23,6.89-20.24,2.42-38.09-13.05-52.86-11.31-10.81-25.23-16.32-40.51-18.84-4.84-.8-8.23-.46-10.73,4.85-2.14,4.54-5.85,8.5-9.42,12.15-4.28,4.38-9.17,8.16-14.3,12.64,2.64,2.85,4.91,6.33,8.07,8.53,8.45,5.86,10.94,14.88,14.33,24Zm39.33-61.94a20.41,20.41,0,0,0,2.86,0,131.43,131.43,0,0,1,53-2.05c18.74,3,35.54-.41,50.29-13.08,10.14-8.71,20.3-17.27,27-29.1,3.5-6.2,2.79-7.81-4-8.92-13.68-2.24-26.76,1.09-39.72,4.81C362.85,215.87,336.23,236.85,306.37,254.81Zm-21.14-6.51c9.34-2.83,18.43-5.8,27.64-8.33a128.12,128.12,0,0,0,30.54-13.11,410.75,410.75,0,0,1,42.67-21.42,85.68,85.68,0,0,0,23.31-15c1.63-1.45,2.68-3.55,4.62-6.21-2.92-.62-4.79-1.43-6.61-1.32-5.13.31-10.34.5-15.32,1.63C349.6,194.12,316.68,219.81,285.23,248.3Zm-17.05,62.59c10.11-7,18.51-15.07,24.34-25.71,2-3.66,1.46-6.29-1-9.41-15.68-19.64-44-13.54-56.17-1.6a5.58,5.58,0,0,0,1,.9c12.39,6.52,16.62,20.42,8.36,34.75-1,1.67-1.59,3.53-2.59,5.8h8v-7.95c5.43,7.9,5.43,7.9,7.3,7.53l-1.16-8.11,1.86-.46c1.2,2.55,2.39,5.11,3.59,7.66l1.63.13,1.27-8Zm-70.74-23c-3.84-3.5-8.91-4.14-12.71-1.26a46.31,46.31,0,0,0-16.46,23.83c-.5,1.64,1.53,5.33,3.25,6.06,2.71,1.15,5.81.29,6.92-3.57,4.29-15,15.24-22.9,29.64-26.52,6-1.52,12.21-.67,16.4,4.61s3.54,11.33.81,17c-5.24,10.91-14,17.55-25.85,20-10.93,2.26-16.36-.36-21.25-9.28l-11.68-1c-1.67,10.81,4.36,18.51,15.68,19.23,22.33,1.41,40.62-7.06,55.35-23.44a35.7,35.7,0,0,0,6.69-11.55c4.44-12.35-3.28-24.86-16.52-26.66l9.37,6.27-1.32.55a23.07,23.07,0,0,0,.94,4C240,294,240,301.59,235.22,310c.67-16.39-.29-21.06-5.06-25.5l.31,5.28c-9.4-17-31.06-17.91-38.51-8.18l6.27-.66Zm101.38-9.33a43.18,43.18,0,0,1,23.95-9.79c11.9-1.09,23.88-1.38,35.83-1.73,12.14-.37,22.06-5.92,31.59-12.74-9.93,3-19.86,1.59-29.71.25-25.84-3.52-50.9-1.69-74.26,9.86ZM196.1,293.78a6.29,6.29,0,0,1,2.29-.47c2.78.55,6.55.42,8,2.17s1.75,6.16.52,8.13c-2.63,4.18-6,8.36-10.13,11.05-5.87,3.86-10.12,2.46-14.59-3-2.43,5.91,0,11.26,6.19,13.14,9.19,2.77,16.82-1.07,24.15-6-2.52-5.93,1.13-11.95,7.6-13.26,1.32-.26,3.15-1.23,3.54-2.31,2.34-6.61-1.25-13-8.1-14.53C208.34,287.13,202,289.51,196.1,293.78ZM323,240.72l-1-1.63c-17.67,5.32-36.13,8.59-51.54,20.51,5.5.78,11.57,2.12,16.13.09C299.06,254.13,310.89,247.14,323,240.72ZM206.42,297.89c-.77-.7-2.07-2.85-3.83-3.34-6.74-1.89-17.84,6.19-18.46,13.14-.33,3.65,1.2,6.09,5.07,6.62C196.28,315.28,206.34,306.56,206.42,297.89Zm16.06,10c-6.54,0-9.25,3.06-7.88,9Q218.53,312.4,222.48,307.93Z" transform="translate(-143.5 -178.39)"/><path class="b" d="M267,316.75l25,30.6c-3.39-9.07-5.88-18.09-14.33-24-3.16-2.2-5.43-5.68-8.07-8.53,5.13-4.48,10-8.26,14.3-12.64,3.57-3.65,7.28-7.61,9.42-12.15,2.5-5.31,5.89-5.65,10.73-4.85,15.28,2.52,29.2,8,40.51,18.84,15.47,14.77,19.94,32.62,13.05,52.86-3.62,10.62-8.81,20.51-18.41,27.23-6.72,4.71-8.66,3.57-13.27-2.8a72,72,0,0,0-16-16c-13.8-9.94-27.84-19.51-39.24-32.27a56.83,56.83,0,0,1-7.33-11.15C262,319.25,263,317.1,267,316.75Z" transform="translate(-143.5 -178.39)"/><path class="b" d="M306.37,254.81c29.86-18,56.48-38.94,89.35-48.35,13-3.72,26-7.05,39.72-4.81,6.83,1.11,7.54,2.72,4,8.92-6.68,11.83-16.84,20.39-27,29.1-14.75,12.67-31.55,16-50.29,13.08a131.43,131.43,0,0,0-53,2.05A20.41,20.41,0,0,1,306.37,254.81Z" transform="translate(-143.5 -178.39)"/><path class="b" d="M285.23,248.3c31.45-28.49,64.37-54.18,106.85-63.76,5-1.13,10.19-1.32,15.32-1.63,1.82-.11,3.69.7,6.61,1.32-1.94,2.66-3,4.76-4.62,6.21a85.68,85.68,0,0,1-23.31,15,410.75,410.75,0,0,0-42.67,21.42A128.12,128.12,0,0,1,312.87,240C303.66,242.5,294.57,245.47,285.23,248.3Z" transform="translate(-143.5 -178.39)"/><path class="b" d="M268.18,310.89l-3.6-4.48-1.27,8-1.63-.13c-1.2-2.55-2.39-5.11-3.59-7.66l-1.86.46,1.16,8.11c-1.87.37-1.87.37-7.3-7.53v7.95h-8c1-2.27,1.63-4.13,2.59-5.8,8.26-14.33,4-28.23-8.36-34.75a5.58,5.58,0,0,1-1-.9c12.14-11.94,40.49-18,56.17,1.6,2.49,3.12,3,5.75,1,9.41C286.69,295.82,278.29,303.89,268.18,310.89Z" transform="translate(-143.5 -178.39)"/><path class="b" d="M197.44,287.85l.79-6.92-6.27.66c7.45-9.73,29.11-8.83,38.51,8.18l-.31-5.28c4.77,4.44,5.73,9.11,5.06,25.5,4.8-8.4,4.8-16,1.48-23.89a23.07,23.07,0,0,1-.94-4l1.32-.55-9.37-6.27c13.24,1.8,21,14.31,16.52,26.66a35.7,35.7,0,0,1-6.69,11.55c-14.73,16.38-33,24.85-55.35,23.44-11.32-.72-17.35-8.42-15.68-19.23l11.68,1c4.89,8.92,10.32,11.54,21.25,9.28,11.81-2.45,20.61-9.09,25.85-20,2.73-5.67,3.37-11.73-.81-17s-10.36-6.13-16.4-4.61c-14.4,3.62-25.35,11.49-29.64,26.52-1.11,3.86-4.21,4.72-6.92,3.57-1.72-.73-3.75-4.42-3.25-6.06a46.31,46.31,0,0,1,16.46-23.83C188.53,283.71,193.6,284.35,197.44,287.85Z" transform="translate(-143.5 -178.39)"/><path class="b" d="M298.82,278.52l-12.6-14.15c23.36-11.55,48.42-13.38,74.26-9.86,9.85,1.34,19.78,2.76,29.71-.25-9.53,6.82-19.45,12.37-31.59,12.74-12,.35-23.93.64-35.83,1.73A43.18,43.18,0,0,0,298.82,278.52Z" transform="translate(-143.5 -178.39)"/><path class="b" d="M196.1,293.78c5.87-4.27,12.24-6.65,19.48-5,6.85,1.54,10.44,7.92,8.1,14.53-.39,1.08-2.22,2-3.54,2.31-6.47,1.31-10.12,7.33-7.6,13.26-7.33,4.89-15,8.73-24.15,6-6.24-1.88-8.62-7.23-6.19-13.14,4.47,5.44,8.72,6.84,14.59,3,4.08-2.69,7.5-6.87,10.13-11.05,1.23-2,.94-6.38-.52-8.13s-5.23-1.62-8-2.17A6.29,6.29,0,0,0,196.1,293.78Z" transform="translate(-143.5 -178.39)"/><path class="b" d="M323,240.72c-12.08,6.42-23.91,13.41-36.37,19-4.56,2-10.63.69-16.13-.09,15.41-11.92,33.87-15.19,51.54-20.51Z" transform="translate(-143.5 -178.39)"/><path class="c" d="M206.42,297.89c-.08,8.67-10.14,17.39-17.22,16.42-3.87-.53-5.4-3-5.07-6.62.62-6.95,11.72-15,18.46-13.14C204.35,295,205.65,297.19,206.42,297.89Z" transform="translate(-143.5 -178.39)"/><path class="b" d="M222.48,307.93q-3.94,4.49-7.88,9C213.23,311,215.94,307.9,222.48,307.93Z" transform="translate(-143.5 -178.39)"/></svg>
